<?xml version="1.0" encoding="UTF-8" standalone="no"?>
<!DOCTYPE svg PUBLIC "-//W3C//DTD SVG 1.1//EN" "http://www.w3.org/Graphics/SVG/1.1/DTD/svg11.dtd">
<!-- Created with Vectornator (http://vectornator.io/) -->
<svg height="100%" stroke-miterlimit="10" style="fill-rule:nonzero;clip-rule:evenodd;stroke-linecap:round;stroke-linejoin:round;" version="1.1" viewBox="0 0 887.022 687.02" width="100%" xml:space="preserve" xmlns="http://www.w3.org/2000/svg" xmlns:xlink="http://www.w3.org/1999/xlink">
<defs/>
<clipPath id="ArtboardFrame">
<rect height="687.02" width="887.022" x="0" y="0"/>
</clipPath>
<g clip-path="url(#ArtboardFrame)" id="Без-названия">
<g opacity="1">
<path d="M-0.365408 789.853L886.657 789.853L886.657-97.1685L-0.365408-97.1685L-0.365408 789.853Z" fill="#ffffff" fill-rule="nonzero" opacity="1" stroke="none"/>
<g opacity="1">
<clipPath id="ClipPath">
<path d="M-0.365408-97.1685L886.657-97.1685L886.657 789.853L-0.365408 789.853L-0.365408-97.1685Z"/>
</clipPath>
<g clip-path="url(#ClipPath)">
<path d="M326.439 298.691C325.551 298.073 287.915 268.851 263.981 281.217C240.046 293.581 223.643 322.89 222.301 336.604C220.959 350.317 223.643 360.532 246.501 353.544C269.356 346.554 284.676 341.714 294.899 357.576C305.121 373.437 323.937 373.172 338.728 368.333C353.519 363.494 359.322 321.548 326.439 298.691" fill="#c2c2c1" fill-rule="nonzero" opacity="1" stroke="none"/>
<path d="M159.648 508.146C159.648 508.146 167.978 488.245 185.189 487.71C202.4 487.174 227.267 487.092 248.377 478.835C269.49 470.582 289.598 459.333 290.631 451.071C291.665 442.809 297.584 427.218 300.81 421.3C304.036 415.382 302.41 397.907 288.71 397.637C275.01 397.366 251.938 398.147 228.148 397.637C204.358 397.125 185.73 402.212 178.2 408.394C170.669 414.577 151.31 427.753 144.049 430.173C136.791 432.593 130.066 440.661 129.53 448.727C128.996 456.793 124.69 471.016 129.53 475.466C134.371 479.914 159.648 508.146 159.648 508.146" fill="#c2c2c1" fill-rule="nonzero" opacity="1" stroke="none"/>
<path d="M337.643 235.245L262.355 188.459C262.355 188.459 333.882 114.242 424.762 97.5721C515.64 80.9051 583.399 120.165 632.874 169.099C682.351 218.034 770.009 290.436 793.131 322.261C816.253 354.085 854.978 397.101 839.915 475.617C839.915 475.617 775.92 404.102 689.339 432.064C602.757 460.025 554.359 554.132 465.093 575.105C465.093 575.105 409.164 545.53 386.042 472.932C386.042 472.932 454.342 518.641 508.117 521.867L589.316 411.628C589.316 411.628 588.238 361.081 620.504 330.963C620.504 330.963 546.829 226.63 470.468 209.426C394.108 192.222 337.643 235.245 337.643 235.245" fill="#c2c2c1" fill-rule="nonzero" opacity="1" stroke="none"/>
<path d="M292.944 320.068C292.944 320.068 320.975 302.523 325.211 289.415C329.445 276.307 329.245 274.693 334.286 274.693C339.327 274.693 360.904 271.87 359.895 275.904C358.886 279.937 336.3 320.47 292.944 320.068" fill="#000000" fill-rule="nonzero" opacity="1" stroke="none"/>
<path d="M353.248 227.443C353.248 227.443 327.436 200.016 319.369 174.204C311.303 148.392 313.181 124.998 313.181 124.998C313.181 124.998 333.347 138.17 336.845 164.254C336.845 164.254 338.318 156.924 334.286 143.816C334.286 143.816 351.226 164.79 351.226 196.652C351.226 196.652 354.06 183.341 353.248 172.654C353.248 172.654 360.514 196.928 353.248 227.443M119.115 471.917C114.072 478.774 101.167 474.942 97.7379 466.876C94.3099 458.809 90.4769 442.475 103.99 436.425C103.99 436.425 97.7379 445.701 105.602 451.55C113.468 457.397 124.156 465.061 119.115 471.917M346.518 141.673C324.467 124.192 307.799 111.285 307.799 111.285C307.799 111.285 299.196 124.185 306.727 160.755C314.259 197.326 334.688 224.078 334.688 224.078C334.688 224.078 271.771 236.58 260.478 249.082C249.184 261.586 191.107 323.294 155.614 349.106C120.122 374.918 91.8909 389.842 83.8229 412.428C75.7569 435.014 51.9609 471.715 64.8679 483.008C77.7739 494.301 105.199 536.65 119.719 533.021C134.238 529.389 154.002 518.905 160.858 514.871C167.713 510.838 168.924 489.058 168.924 474.539C168.924 460.02 170.141 455.715 160.725 457.063C151.311 458.413 143.251 462.974 142.173 452.223C141.095 441.473 144.05 439.047 157.228 429.637C170.405 420.23 186.803 413.241 199.98 426.146C213.157 439.053 250.798 477.507 257.251 476.159C263.703 474.809 276.339 465.672 290.054 460.832C303.765 455.993 269.344 430.186 251.869 420.771C234.395 411.355 216.113 399.256 195.676 402.483C195.676 402.483 237.891 375.865 249.184 373.716C260.478 371.566 276.882 400.339 289.517 419.964C302.152 439.588 313.174 461.632 320.435 456.527C327.693 451.424 313.438 405.174 300.267 385.009C287.097 364.841 284.949 357.311 263.703 359.731C242.46 362.151 197.018 391.998 181.963 402.755C166.907 413.511 159.912 418.08 159.912 418.08C159.912 418.08 192.45 378.285 233.587 357.583C274.727 336.881 316.943 321.012 330.654 359.731C344.368 398.451 344.368 433.135 351.628 442.008C358.887 450.88 362.649 451.424 362.649 451.424C362.649 451.424 366.412 422.915 367.218 391.19C368.026 359.466 365.342 343.334 351.356 334.189C337.374 325.047 286.556 324.239 261.821 334.997C237.085 345.754 205.891 361.88 184.111 376.671C162.331 391.462 154.531 388.505 170.398 375.6C186.267 362.693 215.3 349.788 234.123 328.543C252.947 307.299 261.278 304.879 271.228 305.957C281.179 307.035 288.439 313.487 288.439 313.487C288.439 313.487 284.4 288.748 268.808 289.553C253.218 290.36 245.423 294.399 224.986 322.362C204.549 350.322 173.626 367.797 165.56 371.831C157.493 375.865 173.626 362.958 189.758 344.404C205.891 325.852 249.715 273.685 260.742 262.128C271.771 250.57 271.505 249.222 309.683 255.947C347.86 262.669 369.645 268.582 374.214 259.708C378.783 250.835 395.458 227.178 395.187 209.43C394.916 191.685 368.567 159.154 346.518 141.673" fill="#000000" fill-rule="nonzero" opacity="1" stroke="none"/>
<path d="M398.412 170.714L398.412 104.102C386.219 107.871 374.53 112.528 363.457 117.695L398.412 170.714Z" fill="#000000" fill-rule="nonzero" opacity="1" stroke="none"/>
<path d="M449.333 94.499L451.279 206.273C451.279 206.273 451.097 206.318 450.928 206.362C447.321 207.258 408.32 217.705 390.889 255.134C372.607 294.387 373.685 334.392 373.685 334.392C373.685 334.392 377.604 271.26 412.479 251.364C447.114 231.602 481.435 212.948 481.9 212.696C481.907 212.696 481.944 212.672 481.944 212.672C481.944 212.672 502.035 143.426 525.843 102.395C502.57 95.456 477.111 92.343 449.333 94.499" fill="#000000" fill-rule="nonzero" opacity="1" stroke="none"/>
<path d="M452.893 567.101L444.278 560.302C447.415 562.93 450.302 565.2 452.893 567.101" fill="#000000" fill-rule="nonzero" opacity="1" stroke="none"/>
<path d="M427.887 544.729C416.928 532.359 403.405 511.468 401.494 508.506C409.711 523.145 418.988 535.162 427.887 544.729" fill="#000000" fill-rule="nonzero" opacity="1" stroke="none"/>
<path d="M560.181 115.918L498.866 219.597L498.859 219.597C498.751 219.621 433.892 235.005 416.965 283.366C400.026 331.764 391.556 359.593 391.556 401.538C391.556 443.484 389.136 463.649 389.136 463.649C389.136 463.649 400.833 427.351 407.689 392.261C414.545 357.173 431.484 342.251 442.374 305.549C453.264 268.845 477.884 228.558 505.298 222.887L505.306 222.887L597.041 138.447C585.528 130.027 573.264 122.396 560.181 115.918" fill="#000000" fill-rule="nonzero" opacity="1" stroke="none"/>
<path d="M401.267 508.146C401.267 508.146 401.349 508.272 401.495 508.506C401.425 508.374 401.363 508.235 401.287 508.109L401.267 508.146Z" fill="#000000" fill-rule="nonzero" opacity="1" stroke="none"/>
<path d="M433.022 550.035L433.022 549.992C431.328 548.309 429.62 546.594 427.887 544.729C429.689 546.764 431.422 548.579 433.022 550.035" fill="#000000" fill-rule="nonzero" opacity="1" stroke="none"/>
<path d="M632.875 169.1C627.909 164.191 622.71 159.421 617.372 154.751C603.943 177.98 574.973 218.432 528.106 237.065L528.08 237.073C527.559 237.186 462.869 251.473 443.988 343.864C425.032 436.627 424.227 465.264 416.159 480.589C414.716 483.324 413.342 485.908 412.014 488.397C405.962 499.721 401.381 507.939 401.287 508.11C401.363 508.236 401.426 508.374 401.495 508.507C403.405 511.469 416.929 532.36 427.888 544.73C429.62 546.594 431.328 548.31 433.022 549.993C432.99 549.632 431.638 532.189 438.518 501.714C440.288 493.88 442.577 485.235 445.602 475.749C460.525 428.965 471.818 388.644 489.563 334.392C507.279 280.24 547.724 252.487 547.875 252.385L547.887 252.372C547.887 252.372 580.715 249.082 612.174 234.564C627.437 227.518 643.998 209.194 657.036 192.17C648.371 184.111 640.198 176.341 632.875 169.1" fill="#000000" fill-rule="nonzero" opacity="1" stroke="none"/>
<path d="M453.341 567.454C453.341 567.454 453.354 567.434 453.359 567.434C453.201 567.322 453.052 567.222 452.894 567.1L453.341 567.454Z" fill="#000000" fill-rule="nonzero" opacity="1" stroke="none"/>
<path d="M443.452 559.646L444.278 560.301C444.02 560.082 443.749 559.841 443.477 559.614C443.472 559.626 443.46 559.639 443.452 559.646" fill="#000000" fill-rule="nonzero" opacity="1" stroke="none"/>
<path d="M693.701 225.678C668.984 246.563 626.099 274.889 573.921 276.447C573.907 276.447 515.78 291.349 496.824 371.245C484.945 421.321 475.655 474.539 464.948 512.364C458.57 534.873 451.702 551.926 443.477 559.615C443.749 559.842 444.02 560.082 444.278 560.302L452.893 567.101C453.052 567.222 453.201 567.323 453.358 567.435C453.504 567.291 469.178 551.585 485.113 518.287C488.24 511.758 491.373 504.624 494.404 496.723C512.957 448.324 518.69 378.55 547.887 348.703C577.034 318.908 599.815 304.879 599.891 304.837L599.896 304.829C599.896 304.829 605.719 312.405 649.681 302.726C675.425 297.06 709.033 276.736 732.482 260.862C720.037 249.449 706.821 237.537 693.701 225.678" fill="#000000" fill-rule="nonzero" opacity="1" stroke="none"/>
<path d="M460.782 572.534C460.782 572.534 460.79 572.534 460.79 572.527L460.782 572.534Z" fill="#000000" fill-rule="nonzero" opacity="1" stroke="none"/>
<path d="M793.132 322.261C790.341 318.417 786.591 313.974 782.097 309.059C740.304 333.421 661.914 340.101 661.914 340.101C637.066 344.38 614.781 356.694 595.291 373.477C563.309 401.015 538.876 440.61 523.171 476.696C515.949 493.286 507.764 508.154 499.754 521.022C479.746 553.162 460.827 572.49 460.79 572.528C517.235 546.299 510.273 525.622 580.715 455.949C651.162 386.269 713.538 385.482 713.538 385.482C765.07 389.546 804.457 386.703 831.446 382.96C820.746 357.678 804.922 338.493 793.132 322.261" fill="#000000" fill-rule="nonzero" opacity="1" stroke="none"/>
</g>
</g>
</g>
</g>
</svg>
