<?xml version="1.0" encoding="UTF-8"?>
<svg version="1.1" viewBox="50 -20 600 600" xmlns="http://www.w3.org/2000/svg">
 <path fill="silver" d="m349.93 0c-154.54 0-279.93 125.53-279.93 280.07 0 154.54 125.39 279.93 279.93 279.93 154.54 0 280.07-125.39 280.07-279.93 0-154.54-125.53-280.07-280.07-280.07zm0 17.566c145.08 0 262.5 117.42 262.5 262.5 0 145.08-117.42 262.5-262.5 262.5-145.08 0-262.5-117.42-262.5-262.5-0.003906-145.08 117.42-262.5 262.5-262.5zm-96.184 183.61v122.61h192.5v-122.61zm17.602 17.57h157.47v87.465h-157.47zm-43.816 122.46v17.57h244.93v-17.57z"/>
</svg>
