<?xml version="1.0" encoding="UTF-8"?>
<svg width="700pt" height="700pt" version="1.1" viewBox="0 0 700 550" xmlns="http://www.w3.org/2000/svg">
 <g>
  <path d="m105 297.5h272.82l-40.25 40.074c-3.3125 3.2852-5.1758 7.7578-5.1758 12.426s1.8633 9.1406 5.1758 12.426c3.2852 3.3125 7.7578 5.1758 12.426 5.1758s9.1406-1.8633 12.426-5.1758l70-70c1.5938-1.6641 2.8398-3.6289 3.6758-5.7773 1.75-4.2578 1.75-9.0391 0-13.297-0.83594-2.1484-2.082-4.1133-3.6758-5.7773l-70-70c-4.4414-4.4375-10.91-6.1719-16.973-4.5469-6.0664 1.625-10.801 6.3594-12.426 12.426-1.625 6.0625 0.10938 12.531 4.5469 16.973l40.25 40.074h-272.82c-6.2539 0-12.031 3.3359-15.156 8.75s-3.125 12.086 0 17.5 8.9023 8.75 15.156 8.75z"/>
  <path d="m350 17.5c-56.57 0.22266-111.57 18.605-156.91 52.441-45.336 33.84-78.609 81.34-94.914 135.51-1.4102 4.5039-0.9375 9.3828 1.3008 13.535 2.2422 4.1484 6.0625 7.2227 10.598 8.5156 4.457 1.3008 9.2461 0.77734 13.316-1.457 4.0703-2.2305 7.0859-5.9883 8.3828-10.441 15.523-52.438 49.414-97.527 95.465-127.02 46.051-29.488 101.18-41.402 155.3-33.559 54.117 7.8398 103.6 34.914 139.39 76.262 35.789 41.348 55.484 94.203 55.484 148.89 0 54.684-19.695 107.54-55.484 148.89-35.789 41.348-85.273 68.418-139.39 76.262-54.121 7.8398-109.25-4.0742-155.3-33.562s-79.941-74.578-95.465-127.01c-1.2227-4.5195-4.207-8.3594-8.2852-10.664-4.0781-2.3008-8.9102-2.8711-13.414-1.5859-4.4961 1.2969-8.2852 4.3398-10.52 8.4531-2.2344 4.1094-2.7344 8.9414-1.3789 13.422 18.492 62.594 59.641 116.05 115.42 149.95 55.781 33.895 122.18 45.793 186.26 33.379 64.078-12.418 121.23-48.262 160.31-100.54 39.078-52.277 57.281-117.24 51.055-182.21-6.2305-64.973-36.438-125.29-84.734-169.2-48.297-43.902-111.22-68.238-176.49-68.258z"/>
 </g>
</svg>
