<svg xmlns="http://www.w3.org/2000/svg" width="40" height="40" viewBox="0 0 40 40" fill="none">
<path d="M27.5598 10.4088H27.5199C27.492 10.3809 27.5039 10.3849 27.5598 10.4088ZM37.3484 20.6442C37.2966 20.006 36.7262 19.5353 36.7142 18.8931C36.6498 17.4832 36.0625 16.1478 35.0668 15.1476C34.2172 14.2301 33.3636 13.3446 32.5977 12.3554C32.0039 11.6786 31.2592 11.1512 30.4238 10.8157C30.0249 10.6122 29.626 10.4168 29.2271 10.1735C28.9974 10.0351 28.7845 9.87044 28.5929 9.68283C28.4243 9.48032 28.2114 9.31928 27.9706 9.21214C27.7571 9.13704 27.5343 9.09141 27.3085 9.07652C26.9746 9.01804 26.6622 8.87215 26.403 8.6537C26.2606 8.55097 26.1067 8.46529 25.9443 8.39842C25.5985 8.23928 25.2377 8.11502 24.8673 8.02745C24.3886 7.91178 23.902 7.832 23.4233 7.72031C22.478 7.49694 21.4887 7.60065 20.5234 7.55278C17.8788 7.41317 15.306 7.46104 12.9446 8.83719C12.7258 8.94499 12.4893 9.01254 12.2466 9.03663C10.8585 9.26001 9.50225 9.53923 8.65661 10.8635C8.56858 10.9678 8.44996 11.0418 8.31756 11.0749C6.94539 11.4738 5.92425 12.2317 5.49744 13.6318C5.48095 13.6935 5.44988 13.7503 5.40684 13.7975C5.3638 13.8448 5.31006 13.8809 5.25013 13.903C4.1532 14.3578 2.68929 16.4998 2.85682 17.6765C2.94781 18.3982 2.82871 19.1309 2.51378 19.7866C2.69328 20.2772 2.28242 20.8237 2.68131 21.2864C2.86081 22.0523 3.47908 22.4232 4.03752 22.8819C4.43641 22.9418 4.50023 23.1731 4.46832 23.5241C4.4364 23.8752 4.46832 24.3219 4.46832 24.7447C4.57601 27.6047 5.83649 29.6869 8.5529 30.7998C8.73432 30.8602 8.88931 30.9814 8.99168 31.1429C9.51023 31.9406 9.60995 32.3395 10.4995 32.7145C10.1365 33.2968 9.51422 35.044 12.7811 34.9602C13.5789 34.9402 13.9777 33.9271 14.4564 33.2928C14.604 33.1213 14.7556 32.9458 14.9111 32.7743C15.0667 32.6028 15.3379 32.3275 15.5653 32.1161C15.7927 31.9047 16.0001 31.7173 16.2314 31.5298C16.4097 31.3861 16.5962 31.2529 16.7899 31.1309L16.8736 31.0711C17.1473 30.8909 17.3921 30.6704 17.5996 30.4169C17.7142 30.229 17.7901 30.0202 17.823 29.8026C17.8283 29.7479 17.8448 29.6948 17.8716 29.6467C17.8984 29.5987 17.9348 29.5567 17.9786 29.5234C18.0885 29.4521 18.2121 29.4045 18.3415 29.3838C19.1843 29.1774 19.9189 28.662 20.3998 27.9398L21.042 28.4903C22.5976 29.8106 23.9937 29.9542 25.7568 29.0008C26.0161 28.8652 26.3272 28.8174 26.6064 28.7057C27.7313 28.231 28.8242 27.7404 28.896 26.2685C28.896 25.9454 29.0516 25.5305 29.4665 25.6103C30.687 25.8377 31.8598 25.4468 33.0285 25.3989C34.5203 25.3431 35.709 24.9601 36.5746 23.7276L37.0812 23.0934C37.1168 22.5852 37.2595 22.0904 37.5 21.6414C37.4521 21.2904 37.4122 20.9633 37.3684 20.6402L37.3484 20.6442ZM32.2148 13.5161C32.0407 13.7473 31.8935 13.9976 31.776 14.262C31.6404 14.5054 31.5048 14.7566 31.3771 15.0119C31.1123 15.5219 30.8973 16.0563 30.7349 16.6075C30.6584 17.0147 30.6078 17.4264 30.5833 17.84C30.5721 18.05 30.5481 18.2592 30.5115 18.4663C30.5197 18.6674 30.4669 18.8662 30.36 19.0367C30.2086 18.8009 30.1194 18.5305 30.1007 18.2509C30.0408 17.9717 30.001 17.6885 29.9571 17.4212C29.634 15.2792 30.2483 14.3618 31.3532 13.0335C32.139 13.6677 32.2347 13.4882 32.2148 13.5161ZM19.6818 8.95287C20.0246 8.90113 20.3748 8.9326 20.7029 9.04461C21.3611 9.20815 21.5007 9.2281 22.115 9.41557C22.4261 9.51131 22.6415 9.93413 22.9128 10.0538C23.184 10.1735 23.7624 10.5245 24.0097 10.6441C24.5203 10.8835 25.4656 11.7331 25.9722 11.9645C26.2235 12.0722 27.48 12.826 28.4852 12.6465C28.7564 11.9166 27.2885 11.2744 26.4628 10.8037C26.2155 10.6601 25.6651 10.2772 25.4297 10.1256C24.9289 9.75055 24.3948 9.4221 23.8342 9.14433C22.6375 8.74545 23.0364 8.45825 23.902 8.62179C24.2411 8.71752 24.5921 8.78135 24.9351 8.86112C25.2668 8.95813 25.5865 9.09193 25.8885 9.26001C26.056 9.33979 26.2435 9.37967 26.403 9.47142C26.5502 9.55541 26.6846 9.6602 26.8019 9.78255C27.0059 10.022 27.2486 10.2256 27.5199 10.3849C27.6515 10.4208 28.8003 10.8476 30.4437 11.5815C30.1685 11.9804 29.9012 12.3793 29.6459 12.7542C29.3107 13.3304 29.0097 13.9257 28.7445 14.5373C27.476 13.3725 25.9722 12.7542 24.5083 11.8847C24.2284 11.6925 23.922 11.542 23.5988 11.4379C22.9048 11.2544 22.0911 11.3143 21.5127 10.9952C21.3178 10.8786 21.1336 10.7451 20.9622 10.5963C20.5935 10.3086 20.2553 9.9838 19.953 9.62698C19.8094 9.43951 19.5821 9.20416 19.6818 8.95287ZM10.308 10.4287C10.386 10.3545 10.4686 10.2852 10.5553 10.2213C10.927 9.9595 11.3596 9.79744 11.8118 9.75064L11.8676 9.7267C12.7332 10.0817 13.6108 10.4168 14.4325 10.7838C15.2343 11.1066 16.0026 11.5074 16.7261 11.9804C17.282 12.3953 17.7239 12.9442 18.0105 13.5759C18.1505 13.7984 18.2264 14.0551 18.2299 14.3179C18.0464 14.3418 17.9347 14.1623 17.831 14.0586C17.5081 13.6767 17.1546 13.3218 16.7739 12.9976C16.2453 12.6151 15.6686 12.3039 15.0587 12.0722C13.527 11.4379 11.8277 11.0709 10.2841 10.4327L10.308 10.4287ZM12.2027 32.8501C12.4294 33.1572 12.607 33.4977 12.7292 33.8593C12.7292 33.8593 10.8226 34.0826 12.2107 32.8341L12.2027 32.8501ZM26.9615 26.7671C26.7394 27.0059 26.4842 27.2114 26.2036 27.3774C26.086 27.4819 25.9621 27.5792 25.8326 27.6686L25.342 27.3255C25.2021 27.2382 25.0688 27.1409 24.9431 27.0343C24.8194 26.9266 25.1744 27.2896 25.0388 27.17C24.8115 26.9586 24.3926 26.5517 24.0855 26.7192C24.1333 27.0164 24.2304 27.3036 24.3727 27.5688C24.5083 27.8521 24.3089 27.7842 24.4285 28.0236C24.1972 27.5529 24.7197 29.0886 22.482 27.7444C22.0472 27.15 21.026 26.9147 20.5873 26.456C20.5075 26.3682 19.1991 24.9561 18.6567 25.0798C18.4453 25.1277 18.6567 25.73 18.7285 25.9693C19.61 28.1153 18.533 28.0635 17.6754 26.6235C16.8178 25.1835 14.6957 23.8831 12.9965 22.87C12.8928 22.8062 12.7731 22.6865 12.6295 22.7264C12.6982 22.995 12.8357 23.2411 13.0284 23.4404C13.4647 24.0762 13.9588 24.6704 14.5043 25.2154C14.8728 25.5398 15.2633 25.8384 15.673 26.1089C16.1131 26.3457 16.499 26.6718 16.8058 27.0662C17.0025 27.439 17.1718 27.8257 17.3124 28.223C17.3962 28.4225 17.48 28.6219 17.5557 28.8413C17.5797 28.9051 17.6036 28.9769 17.6235 29.0447C17.516 29.1027 17.4232 29.1846 17.3523 29.2841C17.2845 29.2123 17.2247 29.1285 17.1648 29.0567C17.0093 28.8652 16.8537 28.6578 16.7061 28.4783C16.4063 28.1078 16.0839 27.7561 15.7408 27.4252C15.0986 26.7352 14.4365 26.0451 13.7464 25.3909C13.0996 24.7147 12.4065 24.0842 11.6722 23.5042C11.299 23.2348 10.9115 22.9858 10.5114 22.7583C10.1214 22.4907 9.69021 22.2886 9.235 22.16C9.235 22.16 9.20707 22.16 9.19909 22.1959C9.28286 22.4631 9.6259 22.7264 9.84529 22.9298C10.1003 23.13 10.3379 23.3515 10.5553 23.592C11.8453 25.2298 13.2179 26.8007 14.6678 28.2988C15.3419 29.0208 16.4229 29.8186 16.0679 30.2414C15.6132 30.8078 15.669 30.4488 14.5083 28.9809C14.1931 28.582 13.6866 27.9637 13.2199 27.8201C12.6016 27.6287 11.5525 27.4213 10.9063 27.7284C10.5894 27.8074 10.2579 27.8074 9.94102 27.7284C9.05151 27.4691 8.6606 27.5369 7.77906 27.3016C7.42558 27.1666 7.04818 27.1055 6.67016 27.1221C5.92824 27.2298 7.0132 27.7085 7.09697 27.7444C7.90562 28.0634 8.73954 28.3142 9.59 28.4943C10.2202 28.6191 10.8656 28.6486 11.5047 28.582C12.1108 28.4854 12.7313 28.6191 13.2438 28.957C13.6597 29.314 14.0106 29.7405 14.2809 30.2174C14.596 30.7001 14.8872 31.2226 15.1983 31.6654C15.1983 31.6654 14.947 31.3303 14.955 31.3463C14.7316 31.5497 14.6199 31.9366 14.4165 32.1441C14.2174 31.6199 13.927 31.135 13.5589 30.7121C13.4033 30.5445 13.16 30.2414 12.9725 30.3531C12.8928 30.5166 13.0882 30.9155 13.184 31.1109C13.3789 31.5674 13.6 32.0122 13.8461 32.4432C13.6626 32.6666 13.4712 33.0535 13.2877 33.2769C13.1361 32.9897 13.0084 32.148 12.821 31.6814C12.6613 31.2301 12.3863 30.8285 12.0232 30.5166C11.7041 30.2653 11.3291 29.5393 10.8864 29.3957C10.292 29.2083 10.0886 29.0886 9.43842 28.9131C8.78824 28.7376 7.91069 28.8054 9.1951 29.6351C9.90512 30.1018 10.4556 30.3132 11.1257 30.8317C11.5804 31.1907 11.7918 32.0603 12.095 32.6347C12.0171 32.4921 11.9062 32.3703 11.7716 32.2794C11.637 32.1885 11.4825 32.1311 11.3212 32.1121C10.7348 32.0762 9.72562 30.9155 9.07943 30.4249C8.35113 29.8898 7.66318 29.3018 7.02118 28.6658C6.07183 27.7124 6.19549 28.1273 5.57323 26.2725C5.4416 25.8736 5.17434 25.4747 5.3339 25.3072C5.92026 26.0291 6.13167 26.3522 7.07703 26.5038C7.2757 26.5584 7.48755 26.537 7.67136 26.444C7.64378 26.2025 7.52192 25.9817 7.33231 25.8297C7.18074 25.6662 7.02916 25.4946 6.87359 25.3471C6.52738 25.0601 6.21191 24.7379 5.93223 24.3857C5.65301 23.939 5.44957 23.3646 5.18232 22.8859C5.11472 22.757 5.03598 22.6342 4.94698 22.519C4.91906 22.4831 4.88715 22.4591 4.85922 22.4272L4.80338 22.3993L4.57203 22.3115C4.50023 22.2716 4.42843 22.2318 4.36062 22.1879C4.29281 22.144 4.22101 22.0882 4.15719 22.0363C4.09336 21.9845 4.02555 21.9246 3.95774 21.8608C3.66659 21.5828 3.43222 21.2509 3.26767 20.8835C3.42723 20.9354 3.59476 20.9912 3.77825 21.0391C4.43201 21.172 5.05548 21.4249 5.61711 21.785C6.11571 22.156 6.4787 22.9378 6.7659 23.6239C7.03779 24.3245 7.38556 24.9933 7.803 25.6183C8.22209 26.1419 8.80759 26.5064 9.46236 26.6514C9.80184 26.7591 10.1484 26.843 10.4995 26.9027C10.8623 26.9903 11.2382 27.0106 11.6084 26.9625C11.9195 26.8987 12.0312 26.7232 11.8636 26.4719C11.6122 26.1757 11.3177 25.9189 10.9901 25.71C10.6978 25.4596 10.4195 25.1933 10.1564 24.9123C9.06347 23.7435 8.06227 22.5868 6.96534 21.43C6.43876 20.8635 5.76023 20.4605 5.0108 20.2692C4.38854 20.0937 4.39253 19.9541 3.84207 19.7108C3.91785 19.3119 3.6865 18.8851 3.84207 18.3267C4.13595 18.4468 4.44233 18.5338 4.75551 18.5859C5.1581 18.7021 5.53645 18.89 5.87239 19.1404C7.25157 20.062 8.73345 20.8196 10.2881 21.3981C10.8505 21.6294 11.4368 21.8967 12.0352 22.1001C12.1907 22.152 12.5697 22.2996 12.6853 22.16C12.801 22.0204 12.6136 21.8528 12.5098 21.7611C12.153 21.4794 11.7474 21.2657 11.3132 21.1308C10.6989 20.8875 10.0886 20.732 9.57405 20.5086C9.29483 20.3969 9.03156 20.2413 8.77628 20.1097C7.97851 19.7108 7.10495 19.3119 6.35903 18.8731C5.55957 18.4389 4.80816 17.9214 4.1173 17.3295C4.01557 17.2298 3.92094 17.1232 3.83409 17.0104C3.85745 16.8368 3.90582 16.6675 3.97769 16.5078C4.01359 16.432 4.0455 16.3602 4.08539 16.2884C4.65869 16.8833 5.30938 17.3985 6.01998 17.8201C6.62628 18.1472 7.54771 18.1153 8.24177 18.2629C8.59161 18.3511 8.92543 18.4938 9.23101 18.6857C11.1018 19.6948 13.0483 20.5166 14.7396 21.8768C15.2953 22.3294 15.8191 22.8198 16.3072 23.3447C16.5722 23.6077 16.8138 23.8933 17.0292 24.1983C17.1357 24.3503 17.2516 24.4955 17.3762 24.633C17.4321 24.7009 17.6953 24.9801 17.827 24.8923C17.9586 24.8046 17.827 24.6051 17.7632 24.4934C17.4079 23.8969 16.998 23.3347 16.5386 22.8141C16.3408 22.618 16.1931 22.3772 16.1078 22.1121C16.3987 22.1877 16.6705 22.3236 16.9056 22.511C17.6288 23.0575 18.3064 23.6618 18.9319 24.3179C19.6034 24.9129 20.3604 25.4036 21.1776 25.7739C21.3132 25.8337 21.8876 26.1727 22.0592 25.9374C22.1509 25.8217 21.9834 25.5984 21.8797 25.4707C21.774 25.3405 21.6565 25.2203 21.5286 25.1117C20.2841 23.943 18.9159 22.2716 18.6208 21.9565C17.9864 21.1481 17.11 20.5638 16.1198 20.2892C14.2689 19.7467 12.3184 19.5273 10.5354 18.7734C10.2302 18.6547 9.944 18.4921 9.68573 18.2908C9.44241 18.0794 9.21505 17.7363 8.93982 17.6526C8.54093 17.5209 7.83491 17.7244 7.45995 17.5449C6.97002 17.2374 6.53349 16.852 6.16757 16.404C5.72879 15.9254 5.97211 16.3083 5.52536 15.8536C5.61312 15.1156 6.07184 14.7846 6.35903 14.4655C6.75792 14.7207 6.41887 14.4655 6.82972 14.6051C7.55569 14.8923 8.42526 15.004 9.06347 15.3829C9.46106 15.7035 9.87514 16.003 10.304 16.2804C10.6706 16.4081 11.0566 16.4715 11.4448 16.4679C12.3846 16.5078 13.3051 16.7471 14.1453 17.1699C14.2968 17.2497 14.5003 17.3215 14.5442 17.5329C14.3541 17.6239 14.138 17.6451 13.9339 17.5927C13.3355 17.5369 12.7372 17.4212 12.1668 17.3295C11.5706 17.2108 10.9638 17.1533 10.3559 17.1579C10.1564 17.1579 9.87321 17.1579 9.78147 17.3853C9.85327 17.5369 10.0368 17.5847 10.1804 17.6406C10.324 17.6964 10.4955 17.7722 10.655 17.8241C11.6382 18.158 12.6381 18.4402 13.6507 18.6697C14.8234 18.929 15.9403 19.4116 17.1648 19.623C17.3244 19.655 17.6116 19.7068 17.7193 19.5752C17.8828 19.3638 17.452 18.9011 17.3204 18.7415C17.0851 18.4743 16.8856 18.2748 16.6981 18.0834C15.8055 17.2904 14.7808 16.6599 13.6706 16.2206C13.1201 15.9732 12.5457 15.7898 11.9793 15.5744C10.2721 14.9202 8.44919 14.5054 6.72202 13.919C6.48269 13.8392 6.59437 14.0187 6.36302 13.919C6.53055 13.7435 6.47072 13.2449 6.63825 13.0853C6.69865 12.9158 6.78329 12.7559 6.88955 12.6106L6.96534 12.6665C8.46923 13.45 10.083 14.0014 11.752 14.3019C12.5982 14.4509 13.4223 14.7055 14.2051 15.0598C15.7407 15.7269 17.0977 16.7464 18.166 18.0355C18.7963 18.8333 18.6407 19.9781 18.9638 20.9952C19.1058 21.4441 19.3502 21.8538 19.6778 22.1919C19.961 22.499 20.2801 22.7782 20.5873 23.0535C21.8516 24.1039 23.208 25.0385 24.6399 25.8457C25.3579 26.2725 25.6212 26.1249 26.3831 26.448C26.7118 26.5634 27.034 26.6966 27.3484 26.8469C27.2247 26.8097 27.0978 26.7844 26.9694 26.7711L26.9615 26.7671ZM27.464 25.5266C26.1168 24.6691 24.695 23.9349 23.2159 23.3327C22.4837 23.0348 21.7856 22.6591 21.1337 22.2118C20.7951 21.9939 20.4924 21.7248 20.2362 21.414C20.0001 20.9856 19.8792 20.5032 19.8852 20.014C19.8886 19.5238 19.8419 19.0346 19.7456 18.554C19.4744 17.5927 18.7644 17.15 18.0583 16.791C17.3265 16.489 16.6404 16.0862 16.02 15.5943C15.4297 15.0518 14.963 14.3179 14.257 13.9708C13.8938 13.8102 13.5191 13.6768 13.1361 13.572C12.7372 13.4403 12.3702 13.2967 11.9953 13.1731C10.7748 12.709 9.59301 12.1488 8.46116 11.4978C8.86004 11.2544 9.25893 10.9991 9.72562 10.7558C10.2681 11.0311 10.8226 11.2824 11.389 11.5017C12.8808 12.0841 14.4763 12.3593 15.8126 13.1531C16.1525 13.3385 16.4598 13.5784 16.7221 13.8631C17.2446 14.4655 17.6555 15.2194 18.162 15.9014C18.3869 16.232 18.6677 16.5209 18.9917 16.7551C19.2191 16.8907 19.5581 16.8707 19.7496 17.0861C19.9305 17.386 20.0649 17.7114 20.1485 18.0514C20.4516 18.9609 20.6631 19.7946 21.03 20.6921C21.0939 20.8436 21.2015 21.067 21.2973 21.063C21.6044 21.0391 21.4489 20.1855 21.389 19.8664C21.3053 19.4436 21.1896 18.8572 21.1218 18.4663C21.0315 18.0002 20.8979 17.5435 20.7229 17.1021C20.6431 16.9066 20.5394 16.7311 20.4636 16.5437C20.3804 16.3588 20.2816 16.1813 20.1684 16.0131C19.7696 15.3669 19.2829 14.7407 18.892 14.0187C18.5011 13.2967 18.2378 12.4232 17.7911 11.7491C17.3598 11.1707 16.7926 10.7076 16.1397 10.4008C15.2502 9.92615 15.0866 10.0378 14.1173 9.73069C14.943 9.47541 15.1146 9.47541 15.6012 9.61103C15.8136 9.69103 16.0432 9.7144 16.2673 9.67884C16.4943 9.75562 16.7363 9.77749 16.9734 9.74266C17.815 9.62698 17.2087 8.94489 16.9335 8.69758C16.8497 8.62179 16.758 8.546 16.6662 8.4742C17.0093 8.40639 17.3483 8.34656 17.6874 8.29072C17.835 8.43033 17.9825 8.56595 18.1261 8.71354C18.7356 9.3714 19.293 10.0756 19.7935 10.8197C20.2974 11.5222 20.9585 12.0972 21.7241 12.499C23.9658 13.6517 26.7341 14.0426 28.2778 16.3442C28.6867 17.0033 28.9908 17.7219 29.1793 18.4743C29.2707 18.7297 29.3074 19.0015 29.287 19.272C29.0436 19.1723 28.9319 18.913 28.8083 18.7136C28.4471 18.0338 27.9904 17.4092 27.4521 16.8588C27.0971 16.5476 26.7181 16.2445 26.3352 15.9653C25.9653 15.6582 25.5642 15.3908 25.1385 15.1675C24.9147 15.0853 24.6855 15.0187 24.4525 14.9681C24.2152 14.8777 23.9554 14.8651 23.7105 14.9322C23.7903 15.2592 24.1094 15.4028 24.3448 15.5504C24.6118 15.675 24.8657 15.826 25.1026 16.0012C25.3419 16.2312 25.5633 16.4793 25.7648 16.7431C25.9684 17.008 26.1854 17.2623 26.415 17.505C26.6064 17.9039 26.9295 18.1272 27.121 18.5341C27.3659 18.7823 27.5913 19.049 27.7951 19.3319C28.4692 20.1296 29.4345 21.3024 30.4437 21.5656C31.2415 20.2413 31.1298 19.655 31.788 17.856C32.1111 16.9944 32.127 15.9732 32.3464 15.0877C32.3988 14.7828 32.4803 14.4836 32.5897 14.1942C32.8211 13.8312 33.2 14.2221 33.8582 15.0239C33.7186 15.2473 33.551 15.4826 33.3675 15.7419C32.6376 16.7591 32.5897 18.933 32.3185 20.1974C32.0712 21.3303 31.5646 21.5975 30.7469 22.487C28.541 21.6454 26.8139 20.9234 25.2223 18.9888C23.8541 17.3255 22.6814 15.4387 21.4209 13.6238C21.2581 13.347 21.0783 13.0806 20.8824 12.826C20.7226 12.684 20.5489 12.5584 20.3639 12.4511C20.0207 12.1997 19.6609 11.9718 19.2869 11.769C19.1074 11.6693 18.7883 11.4698 18.6208 11.5895C18.545 11.6733 18.7285 12.0123 18.8082 12.136C19.1194 12.6306 19.5542 12.9736 19.8334 13.4004C20.0089 13.6797 20.1405 13.9868 20.316 14.266C20.6591 14.8245 21.026 15.355 21.3571 15.9014C21.5487 16.1862 21.7054 16.4928 21.8238 16.8149C22.024 17.5095 22.1181 18.2303 22.103 18.9529C22.103 19.28 22.127 19.627 22.131 19.986C22.0953 20.3713 22.1401 20.7598 22.2626 21.1268C22.6091 21.5973 23.044 21.9957 23.543 22.2996C23.7519 22.4634 23.9718 22.6127 24.2012 22.7463C24.4344 22.9098 24.7142 22.9938 24.9989 22.9857C25.1066 22.6985 24.8872 22.4432 24.7476 22.2397C24.608 22.0363 24.4405 21.801 24.2929 21.5935C23.9676 21.1525 23.6908 20.6778 23.4672 20.1775C23.1169 19.3101 22.8173 18.4231 22.5697 17.5209C22.4947 17.2154 22.3946 16.9165 22.2706 16.6274C22.1794 16.4862 22.0767 16.3527 21.9634 16.2285C21.8597 16.0889 21.768 15.9413 21.6682 15.8017C21.4131 15.5535 21.2428 15.231 21.1816 14.8803C21.4618 15.1146 21.7282 15.365 21.9794 15.6302C22.2625 15.882 22.5155 16.1658 22.7333 16.4758C22.9016 16.814 23.0173 17.1758 23.0763 17.5488C23.1494 17.9274 23.248 18.3005 23.3715 18.6657C23.6193 19.3216 23.9194 19.9566 24.269 20.5644C25.2091 22.2572 26.4594 23.7578 27.9547 24.9881C27.9068 25.1037 27.5558 25.3072 27.4601 25.5106L27.464 25.5266ZM27.8629 23.7715C27.2805 23.4322 26.7442 23.0193 26.2674 22.5429C25.7459 22.0083 25.3388 21.3731 25.0707 20.6761C25.0505 20.6178 25.0358 20.5577 25.0269 20.4966V20.4527C25.2582 20.5285 25.5773 20.9194 25.7528 21.1149C25.9922 21.3821 26.1916 21.6334 26.403 21.8608C27.7353 23.3008 29.8494 24.0866 31.1896 23.6358C32.0153 23.1412 33.1841 22.5389 33.7385 20.6442C33.8741 20.1735 33.9459 19.2561 34.1015 18.7774C34.277 18.3404 34.5076 17.9275 34.7876 17.5488C34.9296 18.5156 34.8808 19.5008 34.644 20.4487C32.3544 25.9454 28.6886 24.4057 27.8629 23.7555V23.7715ZM35.8047 22.2397C35.2902 22.9298 34.7597 23.6079 34.3129 24.3259L34.1813 24.3818C32.7892 24.8644 33.8183 24.298 35.0189 20.5166C35.3383 19.5792 35.5131 18.5987 35.5375 17.6087C36.1358 18.6936 35.8646 18.5859 35.7688 19.6669C35.7688 19.7786 35.6412 20.4049 35.8965 20.4288C36.0879 20.4288 36.2954 20.1456 36.419 19.9461C36.7062 21.6215 36.1199 21.6215 35.8087 22.2238L35.8047 22.2397Z" fill="black"/>
</svg>