<svg viewBox="0 0 21 21" fill="none" xmlns="http://www.w3.org/2000/svg">
<path d="M15.7085 2.12484H19.8752C20.1514 2.12484 20.4164 2.23458 20.6117 2.42993C20.8071 2.62528 20.9168 2.89024 20.9168 3.1665V19.8332C20.9168 20.1094 20.8071 20.3744 20.6117 20.5697C20.4164 20.7651 20.1514 20.8748 19.8752 20.8748H1.12516C0.848896 20.8748 0.583944 20.7651 0.388593 20.5697C0.193243 20.3744 0.0834961 20.1094 0.0834961 19.8332V3.1665C0.0834961 2.89024 0.193243 2.62528 0.388593 2.42993C0.583944 2.23458 0.848896 2.12484 1.12516 2.12484H5.29183V0.0415039H7.37516V2.12484H13.6252V0.0415039H15.7085V2.12484ZM13.6252 4.20817H7.37516V6.2915H5.29183V4.20817H2.16683V8.37484H18.8335V4.20817H15.7085V6.2915H13.6252V4.20817ZM18.8335 10.4582H2.16683V18.7915H18.8335V10.4582Z" fill="#595959"/>
</svg>
