<svg width="14" height="13" viewBox="0 0 14 13" fill="none" xmlns="http://www.w3.org/2000/svg">
<path d="M9.19172 4.30929C9.42248 4.54006 9.42248 4.9142 9.19172 5.14496L7.83683 6.49986L9.19172 7.85475C9.42248 8.08551 9.42248 8.45965 9.19172 8.69042C8.96095 8.92118 8.58681 8.92118 8.35605 8.69042L7.00115 7.33553L5.64626 8.69042C5.4155 8.92118 5.04136 8.92118 4.81059 8.69042C4.57983 8.45965 4.57983 8.08551 4.81059 7.85475L6.16548 6.49986L4.81059 5.14496C4.57983 4.9142 4.57983 4.54006 4.81059 4.30929C5.04136 4.07853 5.4155 4.07853 5.64626 4.30929L7.00115 5.66418L8.35605 4.30929C8.58681 4.07853 8.96095 4.07853 9.19172 4.30929Z" fill="#FF202B"/>
<path fill-rule="evenodd" clip-rule="evenodd" d="M0.5 6.5C0.5 2.91015 3.41015 0 7 0C10.5899 0 13.5 2.91015 13.5 6.5C13.5 10.0899 10.5899 13 7 13C3.41015 13 0.5 10.0899 0.5 6.5ZM7 1.18182C4.06285 1.18182 1.68182 3.56285 1.68182 6.5C1.68182 9.43715 4.06285 11.8182 7 11.8182C9.93715 11.8182 12.3182 9.43715 12.3182 6.5C12.3182 3.56285 9.93715 1.18182 7 1.18182Z" fill="#FF202B"/>
</svg>
