<svg viewBox="0 0 26 25" fill="none" xmlns="http://www.w3.org/2000/svg">
<path d="M13 3.125C18.6167 3.125 23.2896 7.16667 24.2698 12.5C23.2906 17.8333 18.6167 21.875 13 21.875C7.38335 21.875 2.71043 17.8333 1.73022 12.5C2.70939 7.16667 7.38335 3.125 13 3.125ZM13 19.7917C15.1245 19.7912 17.1858 19.0696 18.8467 17.745C20.5076 16.4203 21.6697 14.5711 22.1427 12.5C21.668 10.4305 20.5052 8.58334 18.8444 7.26044C17.1837 5.93755 15.1232 5.21722 13 5.21722C10.8768 5.21722 8.81636 5.93755 7.15562 7.26044C5.49487 8.58334 4.33207 10.4305 3.85731 12.5C4.33032 14.5711 5.49239 16.4203 7.15329 17.745C8.8142 19.0696 10.8756 19.7912 13 19.7917ZM13 17.1875C11.7568 17.1875 10.5645 16.6936 9.68545 15.8146C8.80638 14.9355 8.31252 13.7432 8.31252 12.5C8.31252 11.2568 8.80638 10.0645 9.68545 9.18544C10.5645 8.30636 11.7568 7.8125 13 7.8125C14.2432 7.8125 15.4355 8.30636 16.3146 9.18544C17.1937 10.0645 17.6875 11.2568 17.6875 12.5C17.6875 13.7432 17.1937 14.9355 16.3146 15.8146C15.4355 16.6936 14.2432 17.1875 13 17.1875ZM13 15.1042C13.6907 15.1042 14.3531 14.8298 14.8414 14.3414C15.3298 13.853 15.6042 13.1907 15.6042 12.5C15.6042 11.8093 15.3298 11.147 14.8414 10.6586C14.3531 10.1702 13.6907 9.89583 13 9.89583C12.3093 9.89583 11.647 10.1702 11.1586 10.6586C10.6702 11.147 10.3958 11.8093 10.3958 12.5C10.3958 13.1907 10.6702 13.853 11.1586 14.3414C11.647 14.8298 12.3093 15.1042 13 15.1042Z" fill="#595959"/>
</svg>
