<svg viewBox="0 0 26 25" fill="none" xmlns="http://www.w3.org/2000/svg">
<path d="M10.2312 19.5644L8.21977 19.0248L9.03956 15.9634C7.81244 15.5108 6.67197 14.8513 5.66768 14.0134L3.42498 16.2571L1.95102 14.7832L4.19477 12.5405C2.92818 11.0235 2.07715 9.20376 1.72498 7.25921L3.77498 6.88525C4.5656 11.2623 8.39477 14.5832 13 14.5832C17.6041 14.5832 21.4344 11.2623 22.225 6.88525L24.275 7.25817C23.9233 9.20298 23.0726 11.0231 21.8062 12.5405L24.0489 14.7832L22.575 16.2571L20.3323 14.0134C19.328 14.8513 18.1875 15.5108 16.9604 15.9634L17.7802 19.0259L15.7687 19.5644L14.9479 16.5019C13.6587 16.7228 12.3413 16.7228 11.0521 16.5019L10.2312 19.5644Z" fill="#595959"/>
</svg>
